<svg width="16" height="16" viewBox="0 0 16 16" fill="none" xmlns="http://www.w3.org/2000/svg">
<path d="M15.0267 4.28002C14.9475 3.96363 14.7862 3.67373 14.5591 3.43962C14.332 3.20551 14.0472 3.03548 13.7333 2.94669C12.5867 2.66669 8 2.66669 8 2.66669C8 2.66669 3.41333 2.66669 2.26667 2.97335C1.95283 3.06214 1.66798 3.23218 1.4409 3.46629C1.21381 3.7004 1.05252 3.99029 0.973332 4.30669C0.763475 5.47039 0.660823 6.65089 0.666666 7.83335C0.659185 9.02472 0.761844 10.2142 0.973332 11.3867C1.06064 11.6933 1.22554 11.9721 1.45209 12.1963C1.67865 12.4206 1.95921 12.5826 2.26667 12.6667C3.41333 12.9734 8 12.9734 8 12.9734C8 12.9734 12.5867 12.9734 13.7333 12.6667C14.0472 12.5779 14.332 12.4079 14.5591 12.1737C14.7862 11.9396 14.9475 11.6497 15.0267 11.3334C15.2349 10.1784 15.3376 9.00691 15.3333 7.83335C15.3408 6.64199 15.2382 5.45249 15.0267 4.28002V4.28002Z" stroke="white" stroke-width="1.33333" stroke-linecap="round" stroke-linejoin="round"/>
<path d="M6.5 10.0133L10.3333 7.83332L6.5 5.65332V10.0133Z" stroke="white" stroke-width="1.33333" stroke-linecap="round" stroke-linejoin="round"/>
</svg>
